<svg width="25" height="25" viewBox="0 0 25 25" fill="none" xmlns="http://www.w3.org/2000/svg">
<path fill-rule="evenodd" clip-rule="evenodd" d="M5.41737 0.390169C10.1107 -0.130056 14.8471 -0.130056 19.5404 0.390169C22.139 0.681428 24.2354 2.72782 24.5403 5.3355C25.0969 10.0952 25.0969 14.9036 24.5403 19.6633C24.386 20.9304 23.8083 22.1082 22.9007 23.0059C21.9932 23.9035 20.8091 24.4683 19.5404 24.6086C14.8472 25.1305 10.1106 25.1305 5.41737 24.6086C4.14866 24.4683 2.96455 23.9035 2.05701 23.0059C1.14948 22.1082 0.57173 20.9304 0.417436 19.6633C-0.139145 14.9041 -0.139145 10.0962 0.417436 5.33701C0.571663 4.07015 1.14919 2.89248 2.05642 1.99489C2.96365 1.0973 4.14741 0.532376 5.41586 0.391686L5.41737 0.390169ZM12.4789 4.92591C12.7806 4.92591 13.07 5.04578 13.2834 5.25915C13.4967 5.47251 13.6166 5.7619 13.6166 6.06364V11.3624H18.9154C19.2171 11.3624 19.5065 11.4823 19.7199 11.6957C19.9333 11.909 20.0531 12.1984 20.0531 12.5002C20.0531 12.8019 19.9333 13.0913 19.7199 13.3046C19.5065 13.518 19.2171 13.6379 18.9154 13.6379H13.6166V18.9367C13.6166 19.2384 13.4967 19.5278 13.2834 19.7412C13.07 19.9545 12.7806 20.0744 12.4789 20.0744C12.1771 20.0744 11.8877 19.9545 11.6744 19.7412C11.461 19.5278 11.3411 19.2384 11.3411 18.9367V13.6379H6.04237C5.74062 13.6379 5.45124 13.518 5.23787 13.3046C5.02451 13.0913 4.90464 12.8019 4.90464 12.5002C4.90464 12.1984 5.02451 11.909 5.23787 11.6957C5.45124 11.4823 5.74062 11.3624 6.04237 11.3624H11.3411V6.06364C11.3411 5.7619 11.461 5.47251 11.6744 5.25915C11.8877 5.04578 12.1771 4.92591 12.4789 4.92591Z" fill="#6381C7"/>
</svg>
