<svg width="26" height="21" viewBox="0 0 26 21" fill="none" xmlns="http://www.w3.org/2000/svg">
<path d="M15.484 3.83929H21.8598V5.66096H15.484V3.83929Z" fill="white"/>
<path d="M15.4839 9.30467H21.8597V11.1263H15.4839V9.30467Z" fill="white"/>
<path d="M15.4839 13.8594H21.8597V15.681H15.4839V13.8594Z" fill="white"/>
<path d="M3.64319 3.83929H10.019V5.66096H3.64319V3.83929Z" fill="white"/>
<path d="M3.64319 9.30467H10.019V11.1263H3.64319V9.30467Z" fill="white"/>
<path d="M3.64319 13.8594H10.019V15.681H3.64319V13.8594Z" fill="white"/>
<path d="M23.6816 0.195312H1.82166C1.33867 0.195795 0.875608 0.387874 0.534085 0.729398C0.192562 1.07092 0.000482263 1.53399 0 2.01698V18.4119C0.000482263 18.8949 0.192562 19.358 0.534085 19.6995C0.875608 20.041 1.33867 20.2331 1.82166 20.2336H23.6816C24.1646 20.2331 24.6276 20.041 24.9692 19.6995C25.3107 19.358 25.5028 18.8949 25.5032 18.4119V2.01698C25.5028 1.53399 25.3107 1.07092 24.9692 0.729398C24.6276 0.387874 24.1646 0.195795 23.6816 0.195312ZM1.82166 2.01698H11.8408V18.4119H1.82166V2.01698ZM13.6625 18.4119V2.01698H23.6816V18.4119H13.6625Z" fill="white"/>
</svg>
