<svg width="27" height="40" viewBox="0 0 27 40" fill="none" xmlns="http://www.w3.org/2000/svg">
<path d="M13.2962 23.4557L7.83123 17.9907H3.73249C3.00779 17.9907 2.31277 17.7028 1.80033 17.1903C1.28789 16.6779 1 15.9829 1 15.2582V4.3282C1 3.60349 1.28789 2.90847 1.80033 2.39603C2.31277 1.88359 3.00779 1.5957 3.73249 1.5957H22.8599C23.5846 1.5957 24.2796 1.88359 24.7921 2.39603C25.3045 2.90847 25.5924 3.60349 25.5924 4.3282V15.2582C25.5924 15.9829 25.3045 16.6779 24.7921 17.1903C24.2796 17.7028 23.5846 17.9907 22.8599 17.9907H18.7612L13.2962 23.4557Z" fill="white"/>
<path d="M6.46498 7.06069H20.1274M6.46498 12.5257H11.93M13.2962 23.4557L7.83123 17.9907H3.73249C3.00779 17.9907 2.31277 17.7028 1.80033 17.1903C1.28789 16.6779 1 15.9829 1 15.2582V4.3282C1 3.60349 1.28789 2.90847 1.80033 2.39603C2.31277 1.88359 3.00779 1.5957 3.73249 1.5957H22.8599C23.5846 1.5957 24.2796 1.88359 24.7921 2.39603C25.3045 2.90847 25.5924 3.60349 25.5924 4.3282V15.2582C25.5924 15.9829 25.3045 16.6779 24.7921 17.1903C24.2796 17.7028 23.5846 17.9907 22.8599 17.9907H18.7612L13.2962 23.4557Z" stroke="#5F6368" stroke-width="1.36625" stroke-linecap="round" stroke-linejoin="round"/>
<path d="M9.29165 33.1872V34.2012H2.27362V33.4741L6.6232 26.7429H7.63054L6.54982 28.6909L3.67456 33.1872H9.29165ZM7.93741 26.7429V36.4561H6.70325V26.7429H7.93741ZM11.9734 31.833L10.9861 31.5795L11.4731 26.7429H16.4564V27.8837H12.5205L12.2269 30.5254C12.4048 30.4231 12.6294 30.3275 12.9007 30.2386C13.1765 30.1496 13.4922 30.1051 13.848 30.1051C14.2972 30.1051 14.6997 30.183 15.0555 30.3386C15.4113 30.4898 15.7137 30.7078 15.9628 30.9924C16.2163 31.277 16.4097 31.6195 16.5432 32.0198C16.6766 32.42 16.7433 32.867 16.7433 33.3607C16.7433 33.8276 16.6788 34.2568 16.5498 34.6482C16.4253 35.0396 16.2363 35.382 15.9828 35.6755C15.7293 35.9646 15.4091 36.1892 15.0221 36.3493C14.6397 36.5094 14.1883 36.5895 13.6679 36.5895C13.2765 36.5895 12.9052 36.5361 12.5538 36.4294C12.2069 36.3182 11.8956 36.1514 11.6199 35.929C11.3486 35.7022 11.1262 35.422 10.9528 35.0885C10.7838 34.7505 10.677 34.3547 10.6325 33.901H11.8067C11.86 34.2657 11.9668 34.5726 12.1269 34.8216C12.287 35.0707 12.496 35.2597 12.754 35.3887C13.0164 35.5132 13.321 35.5755 13.6679 35.5755C13.9614 35.5755 14.2216 35.5243 14.4484 35.422C14.6752 35.3197 14.8665 35.173 15.0221 34.9817C15.1778 34.7905 15.2957 34.5592 15.3757 34.2879C15.4602 34.0166 15.5025 33.712 15.5025 33.374C15.5025 33.0671 15.4602 32.7825 15.3757 32.5201C15.2912 32.2577 15.1645 32.0287 14.9955 31.833C14.8309 31.6373 14.6285 31.4861 14.3884 31.3793C14.1482 31.2681 13.8725 31.2126 13.5612 31.2126C13.1476 31.2126 12.834 31.2681 12.6205 31.3793C12.4115 31.4905 12.1958 31.6417 11.9734 31.833ZM19.4718 26.2092V36.4561H18.231V26.2092H19.4718ZM23.8814 29.2379L20.7326 32.6068L18.9714 34.4347L18.8714 33.1205L20.1322 31.6128L22.3737 29.2379H23.8814ZM22.754 36.4561L20.1789 33.0138L20.8194 31.913L24.2083 36.4561H22.754Z" fill="white"/>
</svg>
