<svg width="27" height="27" viewBox="0 0 27 27" fill="none" xmlns="http://www.w3.org/2000/svg">
<path fill-rule="evenodd" clip-rule="evenodd" d="M13.5 25.3125C16.6329 25.3125 19.6374 24.068 21.8527 21.8527C24.068 19.6374 25.3125 16.6329 25.3125 13.5C25.3125 10.3671 24.068 7.36257 21.8527 5.1473C19.6374 2.93203 16.6329 1.6875 13.5 1.6875C10.3671 1.6875 7.36257 2.93203 5.1473 5.1473C2.93203 7.36257 1.6875 10.3671 1.6875 13.5C1.6875 16.6329 2.93203 19.6374 5.1473 21.8527C7.36257 24.068 10.3671 25.3125 13.5 25.3125ZM13.5 27C17.0804 27 20.5142 25.5777 23.0459 23.0459C25.5777 20.5142 27 17.0804 27 13.5C27 9.91958 25.5777 6.4858 23.0459 3.95406C20.5142 1.42232 17.0804 0 13.5 0C9.91958 0 6.4858 1.42232 3.95406 3.95406C1.42232 6.4858 0 9.91958 0 13.5C0 17.0804 1.42232 20.5142 3.95406 23.0459C6.4858 25.5777 9.91958 27 13.5 27Z" fill="#5F6368"/>
<path fill-rule="evenodd" clip-rule="evenodd" d="M7.23142 16.1443C7.42521 16.0324 7.65551 16.0021 7.87166 16.06C8.0878 16.1179 8.27209 16.2593 8.38398 16.4531C8.90223 17.3515 9.64801 18.0974 10.5462 18.6158C11.4444 19.1342 12.4634 19.4069 13.5005 19.4063C14.5376 19.4069 15.5565 19.1342 16.4547 18.6158C17.353 18.0974 18.0987 17.3515 18.617 16.4531C18.672 16.3564 18.7456 16.2715 18.8335 16.2033C18.9215 16.1352 19.022 16.085 19.1294 16.0559C19.2368 16.0267 19.3489 16.0191 19.4592 16.0335C19.5696 16.0478 19.676 16.0838 19.7724 16.1395C19.8687 16.1951 19.9531 16.2692 20.0207 16.3576C20.0883 16.446 20.1378 16.5469 20.1662 16.6545C20.1946 16.7621 20.2015 16.8742 20.1864 16.9845C20.1714 17.0947 20.1346 17.2009 20.0784 17.2969C19.412 18.4517 18.4532 19.4107 17.2985 20.0772C16.1437 20.7438 14.8338 21.0944 13.5005 21.0938C12.1672 21.0944 10.8572 20.7438 9.7025 20.0772C8.54776 19.4107 7.58896 18.4517 6.92261 17.2969C6.81073 17.1031 6.78041 16.8728 6.83832 16.6566C6.89623 16.4405 7.03763 16.2562 7.23142 16.1443Z" fill="#5F6368"/>
<path d="M11.8125 10.9688C11.8125 12.366 11.0565 13.5 10.125 13.5C9.1935 13.5 8.4375 12.366 8.4375 10.9688C8.4375 9.5715 9.1935 8.4375 10.125 8.4375C11.0565 8.4375 11.8125 9.5715 11.8125 10.9688ZM18.5625 10.9688C18.5625 12.366 17.8065 13.5 16.875 13.5C15.9435 13.5 15.1875 12.366 15.1875 10.9688C15.1875 9.5715 15.9435 8.4375 16.875 8.4375C17.8065 8.4375 18.5625 9.5715 18.5625 10.9688Z" fill="#5F6368"/>
</svg>
