<svg width="23" height="20" viewBox="0 0 23 20" fill="none" xmlns="http://www.w3.org/2000/svg">
<path d="M2.53771 2.53771C2.05019 3.02521 1.66348 3.60397 1.39964 4.24093C1.1358 4.87789 1 5.56058 1 6.25003C1 6.93947 1.1358 7.62216 1.39964 8.25912C1.66348 8.89608 2.05019 9.47484 2.53771 9.96235L11.5 18.9246L20.4623 9.96235C21.4469 8.97778 22 7.64242 22 6.25003C22 4.85764 21.4469 3.52227 20.4623 2.53771C19.4777 1.55314 18.1424 1.00001 16.75 1.00001C15.3576 1.00001 14.0222 1.55314 13.0377 2.53771L11.5 4.07537L9.96235 2.53771C9.47484 2.05019 8.89608 1.66348 8.25912 1.39964C7.62216 1.1358 6.93947 1 6.25003 1C5.56058 1 4.87789 1.1358 4.24093 1.39964C3.60397 1.66348 3.02521 2.05019 2.53771 2.53771Z" stroke="#C4C4C4" stroke-width="1.16666" stroke-linecap="round" stroke-linejoin="round"/>
</svg>
