<svg width="16" height="17" viewBox="0 0 16 17" fill="none" xmlns="http://www.w3.org/2000/svg">
<path d="M0 0.559211C0 0.250526 0.250526 0 0.559211 0H15.0987C15.202 3.49284e-05 15.3034 0.0287169 15.3914 0.082861C15.4795 0.137005 15.5508 0.214493 15.5975 0.30672C15.6441 0.398947 15.6643 0.502304 15.6558 0.605315C15.6473 0.708326 15.6104 0.806959 15.5492 0.890263L11.7662 6.03947L15.5492 11.1887C15.6104 11.272 15.6473 11.3706 15.6558 11.4736C15.6643 11.5766 15.6441 11.68 15.5975 11.7722C15.5508 11.8645 15.4795 11.9419 15.3914 11.9961C15.3034 12.0502 15.202 12.0789 15.0987 12.0789H1.11842V16.4408C1.11842 16.5891 1.0595 16.7313 0.954632 16.8362C0.84976 16.9411 0.707522 17 0.559211 17C0.410899 17 0.268661 16.9411 0.163789 16.8362C0.0589167 16.7313 0 16.5891 0 16.4408V0.559211ZM1.11842 10.9605H13.9937L10.6219 6.37053C10.5514 6.27455 10.5133 6.15857 10.5133 6.03947C10.5133 5.92038 10.5514 5.8044 10.6219 5.70842L13.9937 1.11842H1.11842V10.9605Z" fill="#C4C4C4"/>
</svg>
