<svg width="29" height="25" viewBox="0 0 29 25" fill="none" xmlns="http://www.w3.org/2000/svg">
<path d="M2.93415 2.93415C2.32095 3.54734 1.83453 4.27531 1.50267 5.07649C1.17081 5.87767 1 6.73637 1 7.60356C1 8.47075 1.17081 9.32945 1.50267 10.1306C1.83453 10.9318 2.32095 11.6598 2.93415 12.273L14.207 23.5459L25.4799 12.273C26.7184 11.0346 27.4141 9.35493 27.4141 7.60356C27.4141 5.85219 26.7184 4.17256 25.4799 2.93415C24.2415 1.69575 22.5619 1.00002 20.8105 1.00002C19.0592 1.00002 17.3795 1.69575 16.1411 2.93415L14.207 4.86824L12.273 2.93415C11.6598 2.32095 10.9318 1.83453 10.1306 1.50267C9.32944 1.17081 8.47074 1 7.60355 1C6.73636 1 5.87766 1.17081 5.07649 1.50267C4.27531 1.83453 3.54734 2.32095 2.93415 2.93415Z" fill="#FB5E5E" stroke="#111111" stroke-width="1.36625" stroke-linecap="round" stroke-linejoin="round"/>
</svg>
