<svg width="29" height="42" viewBox="0 0 29 42" fill="none" xmlns="http://www.w3.org/2000/svg">
<path d="M2.93415 3.03181C2.32095 3.645 1.83453 4.37297 1.50267 5.17415C1.17081 5.97533 1 6.83403 1 7.70122C1 8.56841 1.17081 9.42711 1.50267 10.2283C1.83453 11.0295 2.32095 11.7574 2.93415 12.3706L14.207 23.6435L25.4799 12.3706C26.7184 11.1322 27.4141 9.45259 27.4141 7.70122C27.4141 5.94985 26.7184 4.27021 25.4799 3.03181C24.2415 1.7934 22.5619 1.09767 20.8105 1.09767C19.0592 1.09767 17.3795 1.7934 16.1411 3.03181L14.207 4.9659L12.273 3.03181C11.6598 2.41861 10.9318 1.93219 10.1306 1.60033C9.32944 1.26846 8.47074 1.09766 7.60355 1.09766C6.73636 1.09766 5.87766 1.26846 5.07649 1.60033C4.27531 1.93219 3.54734 2.41861 2.93415 3.03181Z" fill="white" stroke="#5F6368" stroke-width="1.36625" stroke-linecap="round" stroke-linejoin="round"/>
<path d="M9.82424 35.0285V36.0425H2.80622V35.3153L7.15579 28.5842H8.16313L7.08241 30.5321L4.20715 35.0285H9.82424ZM8.47 28.5842V38.2973H7.23584V28.5842H8.47ZM12.506 33.6742L11.5187 33.4207L12.0057 28.5842H16.989V29.7249H13.0531L12.7595 32.3667C12.9374 32.2644 13.162 32.1688 13.4333 32.0798C13.7091 31.9909 14.0248 31.9464 14.3806 31.9464C14.8298 31.9464 15.2323 32.0243 15.5881 32.1799C15.9439 32.3311 16.2463 32.549 16.4954 32.8337C16.7489 33.1183 16.9423 33.4608 17.0758 33.861C17.2092 34.2613 17.2759 34.7083 17.2759 35.2019C17.2759 35.6689 17.2114 36.0981 17.0824 36.4895C16.9579 36.8808 16.7689 37.2233 16.5154 37.5168C16.2619 37.8059 15.9417 38.0305 15.5547 38.1906C15.1723 38.3507 14.7208 38.4308 14.2005 38.4308C13.8091 38.4308 13.4378 38.3774 13.0864 38.2706C12.7395 38.1595 12.4282 37.9927 12.1525 37.7703C11.8812 37.5435 11.6588 37.2633 11.4854 36.9298C11.3163 36.5917 11.2096 36.1959 11.1651 35.7423H12.3393C12.3926 36.107 12.4994 36.4139 12.6595 36.6629C12.8196 36.912 13.0286 37.101 13.2866 37.23C13.549 37.3545 13.8536 37.4167 14.2005 37.4167C14.494 37.4167 14.7542 37.3656 14.981 37.2633C15.2078 37.161 15.3991 37.0143 15.5547 36.823C15.7104 36.6318 15.8283 36.4005 15.9083 36.1292C15.9928 35.8579 16.0351 35.5533 16.0351 35.2153C16.0351 34.9084 15.9928 34.6238 15.9083 34.3614C15.8238 34.099 15.6971 33.8699 15.5281 33.6742C15.3635 33.4786 15.1611 33.3273 14.921 33.2206C14.6808 33.1094 14.4051 33.0538 14.0938 33.0538C13.6802 33.0538 13.3666 33.1094 13.1531 33.2206C12.9441 33.3318 12.7284 33.483 12.506 33.6742ZM20.0044 28.0505V38.2973H18.7635V28.0505H20.0044ZM24.414 31.0792L21.2652 34.4481L19.504 36.276L19.404 34.9618L20.6648 33.4541L22.9063 31.0792H24.414ZM23.2866 38.2973L20.7115 34.855L21.3519 33.7543L24.7409 38.2973H23.2866Z" fill="white"/>
</svg>
