<svg width="23" height="23" viewBox="0 0 23 23" fill="none" xmlns="http://www.w3.org/2000/svg">
<path d="M23 4.025C23 6.2445 21.1945 8.05 18.975 8.05C16.7555 8.05 14.95 6.2445 14.95 4.025C14.95 1.8055 16.7555 0 18.975 0C21.1945 0 23 1.8055 23 4.025ZM18.975 10.35C17.2984 10.347 15.6914 9.6796 14.5059 8.49409C13.3204 7.30858 12.653 5.70156 12.65 4.025C12.65 3.45 12.742 2.875 12.8915 2.3H2.3C1.0235 2.3 0 3.3235 0 4.6V20.7C0 21.31 0.242321 21.895 0.673654 22.3263C1.10499 22.7577 1.69 23 2.3 23H18.4C19.6765 23 20.7 21.9765 20.7 20.7V10.1085C20.125 10.258 19.55 10.35 18.975 10.35Z" fill="#2A5118"/>
</svg>
