<svg width="29" height="29" viewBox="0 0 29 29" fill="none" xmlns="http://www.w3.org/2000/svg">
<path d="M27.9643 13.4643H22.8492C23.5542 12.0432 23.8849 10.4657 23.81 8.8811C23.735 7.2965 23.2569 5.75725 22.4209 4.40905C21.5849 3.06085 20.4186 1.94831 19.0325 1.17676C17.6464 0.405213 16.0864 0.000177624 14.5 0C14.2253 0 13.9619 0.10912 13.7676 0.303354C13.5734 0.497588 13.4643 0.761026 13.4643 1.03571V6.15085C12.0432 5.4458 10.4657 5.11508 8.8811 5.19002C7.2965 5.26496 5.75725 5.74306 4.40905 6.57908C3.06085 7.41509 1.94831 8.58135 1.17676 9.96745C0.405213 11.3536 0.000177624 12.9136 0 14.5C0 14.7747 0.10912 15.0381 0.303354 15.2324C0.497588 15.4266 0.761026 15.5357 1.03571 15.5357H6.15085C5.4458 16.9568 5.11508 18.5343 5.19002 20.1189C5.26496 21.7035 5.74306 23.2428 6.57908 24.591C7.41509 25.9392 8.58135 27.0517 9.96745 27.8232C11.3536 28.5948 12.9136 28.9998 14.5 29C14.7747 29 15.0381 28.8909 15.2324 28.6966C15.4266 28.5024 15.5357 28.239 15.5357 27.9643V22.8492C16.9568 23.5542 18.5343 23.8849 20.1189 23.81C21.7035 23.735 23.2428 23.2569 24.591 22.4209C25.9392 21.5849 27.0517 20.4186 27.8232 19.0325C28.5948 17.6464 28.9998 16.0864 29 14.5C29 14.2253 28.8909 13.9619 28.6966 13.7676C28.5024 13.5734 28.239 13.4643 27.9643 13.4643ZM9.32143 7.25C10.8031 7.24254 12.2505 7.69488 13.4643 8.54464V13.4643H2.14522C2.39659 11.7397 3.25981 10.163 4.57729 9.02217C5.89477 7.88129 7.57863 7.25228 9.32143 7.25ZM19.6786 21.75C18.1969 21.7575 16.7495 21.3051 15.5357 20.4554V15.5357H26.8548C26.6034 17.2603 25.7402 18.837 24.4227 19.9778C23.1052 21.1187 21.4214 21.7477 19.6786 21.75Z" fill="#6B1E1E"/>
</svg>
