<svg width="43" height="33" viewBox="0 0 43 33" fill="none" xmlns="http://www.w3.org/2000/svg">
<path d="M14.44 17.7242L18.05 15.0167V22.2367L14.44 19.5292V22.2367H6.01666V15.0167H14.44V17.7242ZM4.52814 25.8467H21.66V11.4067H2.40666V27.5133L4.52814 25.8467ZM5.36085 28.2533L0 32.465V10.2033C0 9.88419 0.126779 9.57812 0.352448 9.35245C0.578116 9.12678 0.884189 9 1.20333 9H22.8633C23.1825 9 23.4885 9.12678 23.7142 9.35245C23.9399 9.57812 24.0667 9.88419 24.0667 10.2033V27.05C24.0667 27.3691 23.9399 27.6752 23.7142 27.9009C23.4885 28.1265 23.1825 28.2533 22.8633 28.2533H5.36085Z" fill="white"/>
<rect x="19" width="24" height="18" rx="9" fill="#FA8989"/>
<path d="M30.5488 12.1094V13H24.9648V12.2207L27.7598 9.10938C28.1035 8.72656 28.3691 8.40234 28.5566 8.13672C28.748 7.86719 28.8809 7.62695 28.9551 7.41602C29.0332 7.20117 29.0723 6.98242 29.0723 6.75977C29.0723 6.47852 29.0137 6.22461 28.8965 5.99805C28.7832 5.76758 28.6152 5.58398 28.3926 5.44727C28.1699 5.31055 27.9004 5.24219 27.584 5.24219C27.2051 5.24219 26.8887 5.31641 26.6348 5.46484C26.3848 5.60938 26.1973 5.8125 26.0723 6.07422C25.9473 6.33594 25.8848 6.63672 25.8848 6.97656H24.8008C24.8008 6.49609 24.9062 6.05664 25.1172 5.6582C25.3281 5.25977 25.6406 4.94336 26.0547 4.70898C26.4688 4.4707 26.9785 4.35156 27.584 4.35156C28.123 4.35156 28.584 4.44727 28.9668 4.63867C29.3496 4.82617 29.6426 5.0918 29.8457 5.43555C30.0527 5.77539 30.1562 6.17383 30.1562 6.63086C30.1562 6.88086 30.1133 7.13477 30.0273 7.39258C29.9453 7.64648 29.8301 7.90039 29.6816 8.1543C29.5371 8.4082 29.3672 8.6582 29.1719 8.9043C28.9805 9.15039 28.7754 9.39258 28.5566 9.63086L26.2715 12.1094H30.5488ZM33.0801 8.93945L32.2129 8.7168L32.6406 4.46875H37.0176V5.4707H33.5605L33.3027 7.79102C33.459 7.70117 33.6562 7.61719 33.8945 7.53906C34.1367 7.46094 34.4141 7.42188 34.7266 7.42188C35.1211 7.42188 35.4746 7.49023 35.7871 7.62695C36.0996 7.75977 36.3652 7.95117 36.584 8.20117C36.8066 8.45117 36.9766 8.75195 37.0938 9.10352C37.2109 9.45508 37.2695 9.84766 37.2695 10.2812C37.2695 10.6914 37.2129 11.0684 37.0996 11.4121C36.9902 11.7559 36.8242 12.0566 36.6016 12.3145C36.3789 12.5684 36.0977 12.7656 35.7578 12.9062C35.4219 13.0469 35.0254 13.1172 34.5684 13.1172C34.2246 13.1172 33.8984 13.0703 33.5898 12.9766C33.2852 12.8789 33.0117 12.7324 32.7695 12.5371C32.5312 12.3379 32.3359 12.0918 32.1836 11.7988C32.0352 11.502 31.9414 11.1543 31.9023 10.7559H32.9336C32.9805 11.0762 33.0742 11.3457 33.2148 11.5645C33.3555 11.7832 33.5391 11.9492 33.7656 12.0625C33.9961 12.1719 34.2637 12.2266 34.5684 12.2266C34.8262 12.2266 35.0547 12.1816 35.2539 12.0918C35.4531 12.002 35.6211 11.873 35.7578 11.7051C35.8945 11.5371 35.998 11.334 36.0684 11.0957C36.1426 10.8574 36.1797 10.5898 36.1797 10.293C36.1797 10.0234 36.1426 9.77344 36.0684 9.54297C35.9941 9.3125 35.8828 9.11133 35.7344 8.93945C35.5898 8.76758 35.4121 8.63477 35.2012 8.54102C34.9902 8.44336 34.748 8.39453 34.4746 8.39453C34.1113 8.39453 33.8359 8.44336 33.6484 8.54102C33.4648 8.63867 33.2754 8.77148 33.0801 8.93945Z" fill="white"/>
</svg>
