<svg width="26" height="21" viewBox="0 0 26 21" fill="none" xmlns="http://www.w3.org/2000/svg">
<path d="M15.4839 3.64398H21.8597V5.46564H15.4839V3.64398Z" fill="#717171"/>
<path d="M15.4839 9.10936H21.8597V10.931H15.4839V9.10936Z" fill="#717171"/>
<path d="M15.4839 13.664H21.8597V15.4857H15.4839V13.664Z" fill="#717171"/>
<path d="M3.64307 3.64398H10.0189V5.46564H3.64307V3.64398Z" fill="#717171"/>
<path d="M3.64307 9.10936H10.0189V10.931H3.64307V9.10936Z" fill="#717171"/>
<path d="M3.64307 13.664H10.0189V15.4857H3.64307V13.664Z" fill="#717171"/>
<path d="M23.6816 0H1.82166C1.33867 0.000482264 0.875608 0.192562 0.534085 0.534086C0.192562 0.875609 0.000482263 1.33868 0 1.82166V18.2166C0.000482263 18.6996 0.192562 19.1627 0.534085 19.5042C0.875608 19.8457 1.33867 20.0378 1.82166 20.0383H23.6816C24.1646 20.0378 24.6276 19.8457 24.9692 19.5042C25.3107 19.1627 25.5028 18.6996 25.5032 18.2166V1.82166C25.5028 1.33868 25.3107 0.875609 24.9692 0.534086C24.6276 0.192562 24.1646 0.000482264 23.6816 0ZM1.82166 1.82166H11.8408V18.2166H1.82166V1.82166ZM13.6625 18.2166V1.82166H23.6816V18.2166H13.6625Z" fill="#717171"/>
</svg>
