<svg width="23" height="23" viewBox="0 0 23 23" fill="none" xmlns="http://www.w3.org/2000/svg">
<path d="M7.81444 13.1326C8.04954 12.6624 8.18222 12.1317 8.18222 11.5707C8.18222 11.0098 8.04954 10.479 7.81444 10.0089M7.81444 13.1326V10.0089M7.81444 13.1326C7.46262 13.836 6.8836 14.4001 6.17121 14.7333C5.45881 15.0666 4.65476 15.1496 3.88931 14.9688C3.12387 14.7881 2.44187 14.3542 1.9538 13.7374C1.46574 13.1207 1.2002 12.3572 1.2002 11.5707C1.2002 10.7842 1.46574 10.0208 1.9538 9.40404C2.44187 8.7873 3.12387 8.35341 3.88931 8.17265C4.65476 7.9919 5.45881 8.07488 6.17121 8.40815C6.8836 8.74141 7.46262 9.30544 7.81444 10.0089M7.81444 13.1326L15.5331 16.9919M7.81444 10.0089L15.5331 6.14954M15.5331 16.9919C15.1188 17.8204 15.0507 18.7795 15.3436 19.6582C15.6365 20.537 16.2665 21.2633 17.0949 21.6776C17.9234 22.0918 18.8825 22.16 19.7612 21.8671C20.64 21.5742 21.3663 20.9442 21.7806 20.1157C22.1948 19.2872 22.263 18.3281 21.9701 17.4494C21.6772 16.5707 21.0472 15.8443 20.2187 15.4301C19.8085 15.2249 19.3619 15.1026 18.9044 15.0701C18.4469 15.0376 17.9875 15.0955 17.5524 15.2406C16.6737 15.5335 15.9473 16.1635 15.5331 16.9919ZM15.5331 6.14954C15.7382 6.55968 16.0221 6.92541 16.3685 7.22584C16.715 7.52627 17.1172 7.75552 17.5522 7.9005C17.9873 8.04548 18.4466 8.10335 18.904 8.07081C19.3615 8.03827 19.808 7.91595 20.2181 7.71084C20.6283 7.50573 20.994 7.22185 21.2944 6.8754C21.5948 6.52895 21.8241 6.12671 21.9691 5.69167C22.1141 5.25662 22.1719 4.79727 22.1394 4.33986C22.1068 3.88244 21.9845 3.43592 21.7794 3.02578C21.3652 2.19746 20.6389 1.56762 19.7602 1.27482C18.8816 0.982019 17.9227 1.05024 17.0944 1.46448C16.266 1.87871 15.6362 2.60503 15.3434 3.48365C15.0506 4.36227 15.1188 5.32122 15.5331 6.14954Z" stroke="white" stroke-width="1.16385" stroke-linecap="round" stroke-linejoin="round"/>
</svg>
